<?xml version="1.0" encoding="utf-8"?>
<!-- Generator: Adobe Illustrator 27.1.1, SVG Export Plug-In . SVG Version: 6.00 Build 0)  -->
<svg version="1.1" id="Capa_1" xmlns="http://www.w3.org/2000/svg" xmlns:xlink="http://www.w3.org/1999/xlink" x="0px" y="0px"
	 viewBox="0 0 1592.3 561.2" style="enable-background:new 0 0 1592.3 561.2;" xml:space="preserve">
<style type="text/css">
	.st0{fill:url(#SVGID_1_);}
	.st1{fill:url(#SVGID_00000142152378736891988590000014641369292848421761_);}
	.st2{fill:url(#SVGID_00000165235379708157508240000011733012484169843363_);}
	.st3{fill:url(#SVGID_00000049201254767669780830000012262929154334174905_);}
	.st4{fill:url(#SVGID_00000106849147631559713460000006178684210463367591_);}
</style>
<g>
	<linearGradient id="SVGID_1_" gradientUnits="userSpaceOnUse" x1="156.7376" y1="286.9679" x2="351.2294" y2="286.9679">
		<stop  offset="0" style="stop-color:#0071BC"/>
		<stop  offset="0.5057" style="stop-color:#0097BC"/>
		<stop  offset="1" style="stop-color:#009BBC"/>
	</linearGradient>
	<path class="st0" d="M156.74,132.43h194.49v22.08H156.74 M156.74,419.43h194.49v22.08H156.74 M156.74,271.26h194.49v22.08H156.74
		 M156.74,154.51"/>
	
		<linearGradient id="SVGID_00000091731699731730593730000004663212302221433254_" gradientUnits="userSpaceOnUse" x1="411.0067" y1="326.6625" x2="623.3995" y2="326.6625">
		<stop  offset="0" style="stop-color:#0071BC"/>
		<stop  offset="0.5057" style="stop-color:#0097BC"/>
		<stop  offset="1" style="stop-color:#009BBC"/>
	</linearGradient>
	<path style="fill:url(#SVGID_00000091731699731730593730000004663212302221433254_);" d="M522.77,424.31
		c20.16,0,37.05-4.99,50.68-14.96c13.63-9.98,21-22.89,22.13-38.74h27.82c-0.81,14.01-5.81,26.78-15,38.32
		c-9.19,11.53-21.41,20.56-36.65,27.06c-15.24,6.51-31.57,9.76-48.99,9.76c-34.35,0-61.56-10.47-81.64-31.42
		c-20.08-20.94-30.12-49.1-30.12-84.48v-7.64c0-22.64,4.51-42.67,13.55-60.07c9.03-17.41,21.97-30.85,38.83-40.33
		c16.85-9.48,36.57-14.22,59.15-14.22c28.7,0,52.37,7.5,71,22.5c18.63,15,28.58,34.74,29.88,59.22h-27.82
		c-1.29-17.97-8.67-32.48-22.13-43.52c-13.47-11.04-30.44-16.56-50.92-16.56c-26.13,0-46.41,8.28-60.84,24.84
		c-14.43,16.56-21.65,39.77-21.65,69.63v7.43c0,29.29,7.22,52.15,21.65,68.56C476.12,416.1,496.48,424.31,522.77,424.31z"/>
	
		<linearGradient id="SVGID_00000114783197518206086070000001387151332959202721_" gradientUnits="userSpaceOnUse" x1="665.249" y1="326.6625" x2="898.9279" y2="326.6625">
		<stop  offset="0" style="stop-color:#0071BC"/>
		<stop  offset="0.5057" style="stop-color:#0097BC"/>
		<stop  offset="1" style="stop-color:#009BBC"/>
	</linearGradient>
	<path style="fill:url(#SVGID_00000114783197518206086070000001387151332959202721_);" d="M665.25,323.27
		c0-22.08,4.88-41.96,14.64-59.65c9.75-17.69,23.54-31.45,41.36-41.29c17.82-9.83,38.02-14.75,60.6-14.75
		c34.83,0,63.05,10.72,84.66,32.16c21.61,21.44,32.42,49.85,32.42,85.23v5.31c0,22.22-4.88,42.21-14.63,59.97
		c-9.76,17.76-23.51,31.45-41.25,41.08c-17.74,9.63-37.98,14.43-60.72,14.43c-34.68,0-62.86-10.72-84.55-32.16
		c-21.69-21.44-32.54-49.85-32.54-85.23V323.27z M694.28,330.27c0,27.46,8.1,49.99,24.31,67.61c16.21,17.62,37.45,26.43,63.74,26.43
		c26.12,0,47.29-8.81,63.5-26.43c16.21-17.62,24.31-40.86,24.31-69.73v-4.88c0-17.55-3.71-33.61-11.13-48.19
		c-7.42-14.57-17.82-25.86-31.21-33.86c-13.39-7.99-28.71-11.99-45.96-11.99c-25.81,0-46.85,8.88-63.14,26.64
		c-16.29,17.76-24.43,41.01-24.43,69.73V330.27z"/>
	
		<linearGradient id="SVGID_00000039129647385717611400000014526750864311087513_" gradientUnits="userSpaceOnUse" x1="947.0686" y1="289.0905" x2="1157.766" y2="289.0905">
		<stop  offset="0" style="stop-color:#0071BC"/>
		<stop  offset="0.5057" style="stop-color:#0097BC"/>
		<stop  offset="1" style="stop-color:#009BBC"/>
	</linearGradient>
	<path style="fill:url(#SVGID_00000039129647385717611400000014526750864311087513_);" d="M947.07,324.54
		c0-35.66,9.07-64.07,27.21-85.23c18.14-21.15,42.78-31.73,73.9-31.73c35.32,0,62.25,12.24,80.8,36.72V132.43h28.79V441.5h-27.09
		l-1.21-30.57c-18.55,23.21-45.8,34.81-81.76,34.81c-30.16,0-54.47-10.65-72.93-31.95c-18.47-21.3-27.7-50.06-27.7-86.29V324.54z
		 M976.34,329c0,29.29,6.69,52.4,20.08,69.31c13.38,16.91,32.25,25.37,56.61,25.37c35.64,0,60.96-13.8,75.96-41.39V274.44
		c-15-29.86-40.16-44.79-75.47-44.79c-24.35,0-43.3,8.38-56.85,25.15C983.11,271.58,976.34,296.31,976.34,329z"/>
	
		<linearGradient id="SVGID_00000120540403669748441550000003955400752481866885_" gradientUnits="userSpaceOnUse" x1="1217.5433" y1="325.946" x2="1435.5643" y2="325.946">
		<stop  offset="0" style="stop-color:#0071BC"/>
		<stop  offset="0.5057" style="stop-color:#0097BC"/>
		<stop  offset="1" style="stop-color:#009BBC"/>
	</linearGradient>
	<path style="fill:url(#SVGID_00000120540403669748441550000003955400752481866885_);" d="M1347.62,444.12
		c-22.14,2.31-42.64-0.39-61.53-8.1c-18.88-7.71-34.19-19.59-45.91-35.66c-11.73-16.06-18.7-34.72-20.91-55.98l-0.95-9.08
		c-2.29-21.96,0.5-42.24,8.38-60.84c7.87-18.6,19.94-33.84,36.22-45.71c16.28-11.87,34.52-18.86,54.73-20.96
		c31.6-3.29,57.65,3.56,78.15,20.56c20.5,17,32.46,41.9,35.88,74.69l1.47,14.14l-185.74,19.36l0.51,4.86
		c2.7,25.9,13.4,46.59,32.13,62.07c18.72,15.48,40.91,21.88,66.57,19.21c15.4-1.6,28.74-5.48,40.01-11.64
		c11.28-6.15,21.16-15.15,29.66-26.99l19.3,10.15C1417.19,423.28,1387.88,439.92,1347.62,444.12z M1319.88,229.32
		c-21.66,2.26-39.18,11.13-52.56,26.61c-13.39,15.48-20.46,35.14-21.21,58.98l156.15-16.27l-0.29-2.74c-3.09-21.87-12.09-39-27-51.4
		C1360.06,232.1,1341.69,227.04,1319.88,229.32z"/>
</g>
</svg>
